<svg width="1102" height="165" viewBox="0 0 1102 165" fill="none" xmlns="http://www.w3.org/2000/svg">
<g clip-path="url(#clip0_44_314)">
<path d="M251.32 95.3917H267.107C267.435 107.001 275.06 112.477 286.236 112.477C295.696 112.477 303.754 107.97 303.754 97.0032C303.754 90.8855 301.277 85.29 293.443 85.29C287.43 85.29 280.551 88.9457 272.165 88.9457C257.662 88.9457 252.499 78.6351 252.499 68.2051C252.499 54.9848 261.094 42.0928 284.416 42.0928C301.933 42.0928 316.437 49.4042 316.437 67.5635H301.068C300.859 57.3573 293.548 52.0901 283.774 52.0901C274.851 52.0901 267.435 56.7157 267.435 67.6679C267.435 73.0396 269.375 78.4113 278.074 78.4113C284.953 78.4113 291.936 74.6511 299.665 74.6511C313.199 74.6511 319.003 85.7227 319.003 97.0032C319.003 117.744 299.77 123.116 286.341 123.116C268.823 123.116 251.634 117.416 251.32 95.3917Z" fill="black"/>
<path d="M331.463 44.2417H346.712V120.952H331.463V44.2417Z" fill="black"/>
<path d="M363.916 44.2417H423.228V54.8806H379.181V76.054H419.573V86.6929H379.181V120.967H363.931V44.2417H363.916Z" fill="black"/>
<path d="M453.4 54.9851H427.93V44.2417H494.121V54.9851H468.65V120.952H453.385V54.9851H453.4Z" fill="black"/>
<path d="M553 44.2417H569.652L598.763 120.952H582.424L575.441 101.823H545.032L537.944 120.952H523.545L552.985 44.2417H553ZM572.547 91.9452L560.296 58.1036L547.941 91.9452H572.547Z" fill="black"/>
<path d="M601.986 82.4996C601.986 62.0873 613.595 41.8838 640.991 41.8838C661.09 41.8838 673.982 54.5669 675.593 71.9652H660.224C658.822 60.5802 651.63 52.6271 640.991 52.6271C624.771 52.6271 617.684 66.1608 617.684 82.4996C617.684 98.8385 624.771 112.268 640.991 112.268C652.808 112.268 660.015 104.419 661.403 92.3925H676.772C675.16 109.686 662.701 123.115 640.991 123.115C613.595 123.115 601.986 103.031 601.986 82.4996Z" fill="black"/>
<path d="M710.285 44.2417H726.937L756.048 120.952H739.71L732.726 101.823H702.317L695.229 120.952H680.83L710.27 44.2417H710.285ZM729.832 91.9452L717.581 58.1036L705.226 91.9452H729.832Z" fill="black"/>
<path d="M765.284 44.2417H800.842C822.657 44.2417 837.369 58.2081 837.369 82.6044C837.369 104.3 824.254 120.967 800.514 120.967H765.27V44.2417H765.284ZM799.991 110.209C813.421 110.209 821.806 98.0629 821.806 82.4851C821.806 64.4302 811.809 54.9851 798.38 54.9851H780.549V110.209H799.991Z" fill="black"/>
<path d="M850.59 44.2417H910.857V54.8806H865.839V75.1885H907.097V85.8274H865.839V110.328H911.185V120.967H850.59V44.2417Z" fill="black"/>
<path d="M930.941 44.2417H952.219L970.915 104.091L989.403 44.2417H1011.43L1018.08 120.952H1003.15L997.774 59.924L978.645 120.952H961.351L942.222 60.2523L936.641 120.952H924.391L930.941 44.2417Z" fill="black"/>
<path d="M1056.1 86.6926L1026.33 44.2563H1045.46L1065.13 72.1891L1084.8 44.2563H1101.24L1071.47 86.6926V120.967H1056.1V86.6926Z" fill="black"/>
<path d="M85.544 0V99.8386L65.0868 94.3625L52.4186 90.9604L32.2002 85.544L30.8722 85.1858L15.4436 81.0526V15.4436H0V0H85.544Z" fill="#3ABEF9"/>
<path d="M186.516 0V15.4436H171.072V81.0526L155.643 85.1858L154.33 85.5439L134.082 90.9753L121.414 94.3624L100.987 99.8386L96.719 100.988L93.2722 101.898H93.2573L89.8105 100.988L85.543 99.8386V0H186.516Z" fill="#1462FF"/>
<path d="M93.2578 165L11.1309 142.991V91.4375L93.2578 113.446L175.385 91.4375V143.006L93.2578 165.015V165ZM19.7405 136.381L93.2429 156.077L166.76 136.381V102.643L93.2578 122.34L19.7405 102.643V136.366V136.381Z" fill="#1114A1"/>
</g>
<defs>
<clipPath id="clip0_44_314">
<rect width="1101.22" height="165" fill="white"/>
</clipPath>
</defs>
</svg>
